<svg width="1000" height="1000" viewBox="0 0 1000 1000" fill="none" xmlns="http://www.w3.org/2000/svg">
<rect width="1000" height="1000" rx="300" fill="black"/>
<g clip-path="url(#clip0_3001_12)">
<path d="M490.454 454.272L628.975 621.843L633.58 617.237C648.46 601.295 662.631 585.353 675.739 569.411C688.847 553.468 723.565 516.978 735.611 500.328L789.814 599.524C780.603 612.632 768.204 628.574 753.324 646.288C738.445 664.001 720.731 684.549 699.121 707.223L842.247 884.004H697.349L620.472 789.414C550.326 862.394 476.284 898.884 400.469 898.884C332.095 898.884 274.348 877.273 226.522 833.343C179.758 789.414 156.376 735.21 156.376 670.732C156.376 593.855 192.866 529.378 267.617 479.071L318.278 444.353C319.341 444.353 320.049 443.29 322.175 441.518C323.946 440.456 326.072 438.684 328.552 435.85C277.891 381.646 251.675 328.151 251.675 275.719C251.675 223.287 268.68 181.128 302.336 148.535C337.055 115.942 381.693 100 436.959 100C490.454 100 533.321 115.942 568.04 147.827C602.759 179.711 620.472 219.744 620.472 267.571C620.472 301.227 611.261 331.34 592.485 358.264C572.646 384.126 538.99 417.074 490.454 454.272ZM397.989 519.813L391.612 524.418C343.786 557.011 311.193 584.29 294.188 603.775C277.183 623.26 269.034 644.871 269.034 667.544C269.034 699.428 282.142 729.187 307.296 755.403C333.512 780.557 363.271 793.665 395.155 793.665C440.148 793.665 491.517 764.615 550.326 705.805L397.989 519.813ZM423.143 373.144L432.354 365.704C448.296 353.659 462.467 342.322 472.741 333.82C483.015 324.609 491.517 316.815 496.123 310.438C506.397 298.392 511.002 283.159 511.002 264.737C511.002 244.189 504.625 228.247 490.454 215.138C476.284 202.03 458.57 196.362 435.188 196.362C414.64 196.362 396.927 202.739 381.693 215.847C367.522 227.892 360.082 243.834 360.082 263.674C360.082 285.993 369.293 308.666 387.361 330.985L416.412 365.704C417.474 366.413 419.246 369.247 423.143 373.144Z" fill="#FDFFD5"/>
<path fill-rule="evenodd" clip-rule="evenodd" d="M391.345 105.658C438.19 91.9602 395 103 395 103C282.341 128.862 251.783 192.501 251.053 280.314C250.568 338.7 273.212 372.569 310.5 417.5C316.939 425.259 327.93 436.548 327.93 436.548C327.93 436.548 293.673 461 271.531 475.55C242.034 494.934 214.433 516.384 191.5 553.5C155.128 612.365 146.453 661.418 163.548 728.469C184.432 810.38 229.897 865.881 312 886C357.651 897.186 412.625 912.028 432.086 877.971C421.316 870.147 404.684 864.857 385.257 858.679C329.92 841.08 251.895 816.266 222.003 705.087C214.917 679.225 212.792 651.237 218.106 624.667C224.483 592.782 242.905 564.441 265.933 541.059C287.948 518.355 314.306 500.327 340.466 482.436C341.247 481.901 342.029 481.367 342.81 480.832L386.385 451.073C382.699 446.702 378.596 442.025 374.226 437.045C324.413 380.278 237.476 252.333 304.5 166C329.825 133.379 344.5 119.356 391.345 105.658ZM610.285 752.559C579.818 799.677 537.659 839.71 488.77 867.343L488.061 867.698C532.46 876.154 579.435 829.764 606.811 802.728C611.546 798.052 615.694 793.955 619.142 790.821C621.206 789.1 635.883 807.928 651.37 827.794C667.778 848.843 685.096 871.058 689.288 871.24C697.464 871.762 699.832 872.199 701.843 871.543C703.928 870.863 705.631 869.011 713.024 864.863C683.62 819.871 662.363 791.529 627.29 751.142C624.81 748.662 621.622 745.474 618.079 745.828C614.536 746.182 612.057 749.725 610.285 752.559ZM690.705 677.099C718.693 641.672 746.326 607.662 775.376 573.297C775.666 573.587 777.97 577.846 780.665 582.828C784.56 590.029 789.273 598.74 789.901 599.159C788.933 599.74 783.516 607.099 777.416 615.388C772.358 622.259 766.83 629.769 762.977 634.587C746.584 655.801 726.108 677.89 706.047 699.531C703.998 701.743 701.952 703.949 699.916 706.149C695.665 701.19 687.517 685.602 687.871 682.413C688.203 680.419 689.472 678.736 690.505 677.365C690.573 677.275 690.64 677.186 690.705 677.099ZM436.16 389.607C430.669 383.673 420.491 370.023 415 364C415 364 462.184 348.093 481.5 325C502.378 300.04 517.41 276.449 508 246C501.415 224.692 489.068 212.42 471 202.5C501.113 207.105 529.157 232.133 533.408 262.601C534.825 273.229 534.117 284.566 531.991 295.194C523.134 341.603 493.375 383.762 452.634 407.498C447.143 401.475 441.652 395.541 436.16 389.607Z" fill="black" fill-opacity="0.5"/>
<path d="M398 520L426.772 503.506L572.024 681.35L550.059 705.795L398 520Z" fill="black" fill-opacity="0.5"/>
</g>
<defs>
<clipPath id="clip0_3001_12">
<rect width="800" height="800" fill="white" transform="translate(100 100)"/>
</clipPath>
</defs>
</svg>
