<svg width="800" height="800" viewBox="0 0 800 800" fill="none" xmlns="http://www.w3.org/2000/svg">
<g clip-path="url(#clip0_3001_2)">
<path d="M390.454 354.272L528.975 521.843L533.58 517.237C548.46 501.295 562.631 485.353 575.739 469.411C588.847 453.468 623.565 416.978 635.611 400.328L689.814 499.524C680.603 512.632 668.204 528.574 653.324 546.288C638.445 564.001 620.731 584.549 599.121 607.223L742.247 784.004H597.349L520.472 689.414C450.326 762.394 376.284 798.884 300.469 798.884C232.095 798.884 174.348 777.273 126.522 733.343C79.7577 689.414 56.3757 635.21 56.3757 570.732C56.3757 493.855 92.8658 429.378 167.617 379.071L218.278 344.353C219.341 344.353 220.049 343.29 222.175 341.518C223.946 340.456 226.072 338.684 228.552 335.85C177.891 281.646 151.675 228.151 151.675 175.719C151.675 123.287 168.68 81.1283 202.336 48.5353C237.055 15.9422 281.693 -1.52588e-05 336.959 -1.52588e-05C390.454 -1.52588e-05 433.321 15.9422 468.04 47.8267C502.759 79.7112 520.472 119.744 520.472 167.571C520.472 201.227 511.261 231.34 492.485 258.264C472.646 284.126 438.99 317.074 390.454 354.272ZM297.989 419.813L291.612 424.418C243.786 457.011 211.193 484.29 194.188 503.775C177.183 523.26 169.034 544.871 169.034 567.544C169.034 599.428 182.142 629.187 207.296 655.403C233.512 680.557 263.271 693.665 295.155 693.665C340.148 693.665 391.517 664.615 450.326 605.805L297.989 419.813ZM323.143 273.144L332.354 265.704C348.296 253.659 362.467 242.322 372.741 233.82C383.015 224.609 391.517 216.815 396.123 210.438C406.397 198.392 411.002 183.159 411.002 164.737C411.002 144.189 404.625 128.247 390.454 115.138C376.284 102.03 358.57 96.362 335.188 96.362C314.64 96.362 296.927 102.739 281.693 115.847C267.522 127.892 260.082 143.834 260.082 163.674C260.082 185.993 269.293 208.666 287.361 230.985L316.412 265.704C317.474 266.413 319.246 269.247 323.143 273.144Z" fill="#FDFFD5"/>
<path fill-rule="evenodd" clip-rule="evenodd" d="M291.345 5.65807C338.19 -8.03985 295 2.99994 295 2.99994C182.341 28.8618 151.783 92.5013 151.053 180.314C150.568 238.7 173.212 272.569 210.5 317.5C216.939 325.259 227.93 336.548 227.93 336.548C227.93 336.548 193.673 361 171.531 375.55C142.034 394.934 114.433 416.384 91.5 453.5C55.1277 512.365 46.4531 561.418 63.548 628.469C84.4316 710.38 129.897 765.881 212 786C257.651 797.186 312.625 812.028 332.086 777.971C321.316 770.147 304.684 764.857 285.257 758.679C229.92 741.08 151.895 716.266 122.003 605.087C114.917 579.225 112.792 551.237 118.106 524.667C124.483 492.782 142.905 464.441 165.933 441.059C187.948 418.355 214.306 400.327 240.466 382.436C241.247 381.901 242.029 381.367 242.81 380.832L286.385 351.073C282.699 346.702 278.596 342.025 274.226 337.045C224.413 280.278 137.476 152.333 204.5 65.9999C229.825 33.3785 244.5 19.356 291.345 5.65807ZM510.285 652.559C479.818 699.677 437.659 739.71 388.77 767.343L388.061 767.698C432.46 776.154 479.435 729.764 506.811 702.728C511.546 698.052 515.694 693.955 519.142 690.821C521.206 689.1 535.883 707.928 551.37 727.794C567.778 748.843 585.096 771.058 589.288 771.24C597.464 771.762 599.832 772.199 601.843 771.543C603.928 770.863 605.631 769.011 613.024 764.863C583.62 719.871 562.363 691.529 527.29 651.142C524.81 648.662 521.622 645.474 518.079 645.828C514.536 646.182 512.057 649.725 510.285 652.559ZM590.705 577.099C618.693 541.672 646.326 507.662 675.376 473.297C675.666 473.587 677.97 477.846 680.665 482.828C684.56 490.029 689.273 498.74 689.901 499.159C688.933 499.74 683.516 507.099 677.416 515.388C672.358 522.259 666.83 529.769 662.977 534.587C646.584 555.801 626.108 577.89 606.047 599.531C603.998 601.743 601.952 603.949 599.916 606.149C595.665 601.19 587.517 585.602 587.871 582.413C588.203 580.419 589.472 578.736 590.505 577.365C590.573 577.275 590.64 577.186 590.705 577.099ZM336.16 289.607C330.669 283.673 320.491 270.023 315 264C315 264 362.184 248.093 381.5 225C402.378 200.04 417.41 176.449 408 146C401.415 124.692 389.068 112.42 371 102.5C401.113 107.105 429.157 132.133 433.408 162.601C434.825 173.229 434.117 184.566 431.991 195.194C423.134 241.603 393.375 283.762 352.634 307.498C347.143 301.475 341.652 295.541 336.16 289.607Z" fill="black" fill-opacity="0.5"/>
<path d="M298 420L326.772 403.506L472.024 581.35L450.059 605.795L298 420Z" fill="black" fill-opacity="0.5"/>
</g>
<defs>
<clipPath id="clip0_3001_2">
<rect width="800" height="800" fill="white"/>
</clipPath>
</defs>
</svg>
