<svg width="146" height="146" viewBox="0 0 146 146" fill="none" xmlns="http://www.w3.org/2000/svg">
<rect width="146" height="146" rx="73" fill="black"/>
<path d="M71.6064 66.3237L91.8304 90.7891L92.5028 90.1167C94.6752 87.7891 96.7441 85.4615 98.6579 83.134C100.572 80.8064 105.641 75.4788 107.399 73.0478L115.313 87.5305C113.968 89.4443 112.158 91.7718 109.985 94.358C107.813 96.9442 105.227 99.9442 102.072 103.254L122.968 129.065H101.813L90.589 115.254C80.3477 125.909 69.5374 131.237 58.4686 131.237C48.4859 131.237 40.0549 128.082 33.0722 121.668C26.2447 115.254 22.8309 107.341 22.8309 97.9269C22.8309 86.7029 28.1584 77.2892 39.0722 69.9444L46.4686 64.8755C46.6238 64.8755 46.7273 64.7203 47.0376 64.4617C47.2962 64.3065 47.6066 64.0479 47.9686 63.6341C40.5721 55.7204 36.7446 47.9101 36.7446 40.255C36.7446 32.5999 39.2273 26.4447 44.1411 21.6862C49.21 16.9276 55.7272 14.6 63.7961 14.6C71.6064 14.6 77.865 16.9276 82.9339 21.5827C88.0028 26.2378 90.589 32.0826 90.589 39.0653C90.589 43.9791 89.2442 48.3756 86.5028 52.3066C83.6063 56.0824 78.6925 60.8928 71.6064 66.3237ZM58.1065 75.8926L57.1755 76.565C50.1928 81.3236 45.4342 85.3064 42.9514 88.1512C40.4687 90.996 39.279 94.1511 39.279 97.4614C39.279 102.117 41.1928 106.461 44.8652 110.289C48.6928 113.961 53.0376 115.875 57.6927 115.875C64.2616 115.875 71.7616 111.634 80.3477 103.048L58.1065 75.8926ZM61.7789 54.479L63.1237 53.3928C65.4513 51.6342 67.5202 49.979 69.0202 48.7377C70.5202 47.3929 71.7616 46.2549 72.434 45.3239C73.934 43.5653 74.6064 41.3412 74.6064 38.6515C74.6064 35.6516 73.6753 33.324 71.6064 31.4102C69.5374 29.4964 66.9512 28.6689 63.5375 28.6689C60.5375 28.6689 57.9513 29.5999 55.7272 31.5137C53.6582 33.2723 52.572 35.5998 52.572 38.4964C52.572 41.755 53.9169 45.0653 56.5548 48.3239L60.7961 53.3928C60.9513 53.4963 61.2099 53.91 61.7789 54.479Z" fill="#FDFFD5"/>
<path fill-rule="evenodd" clip-rule="evenodd" d="M57.1364 15.4261C63.9758 13.4262 57.67 15.038 57.67 15.038C41.2219 18.8138 36.7603 28.1052 36.6538 40.9259C36.583 49.4502 39.889 54.3951 45.333 60.955C46.2732 62.0879 47.8779 63.7361 47.8779 63.7361C47.8779 63.7361 42.8763 67.306 39.6436 69.4303C35.337 72.2604 31.3073 75.3921 27.959 80.811C22.6487 89.4054 21.3822 96.567 23.878 106.356C26.9271 118.316 33.565 126.419 45.552 129.356C52.217 130.989 60.2433 133.156 63.0846 128.184C61.5121 127.041 59.084 126.269 56.2475 125.367C48.1683 122.798 36.7768 119.175 32.4125 102.943C31.378 99.1668 31.0676 95.0806 31.8435 91.2014C32.7745 86.5462 35.4642 82.4083 38.8262 78.9946C42.0405 75.6798 45.8888 73.0478 49.7081 70.4356C49.8221 70.3576 49.9362 70.2795 50.0502 70.2015L56.4123 65.8567C55.8741 65.2184 55.275 64.5357 54.637 63.8086C47.3643 55.5206 34.6715 36.8406 44.457 24.236C48.1546 19.4733 50.297 17.426 57.1364 15.4261ZM89.1017 109.874C84.6534 116.753 78.4983 122.598 71.3604 126.632L71.257 126.684C77.7393 127.919 84.5975 121.146 88.5944 117.198C89.2857 116.516 89.8914 115.917 90.3948 115.46C90.6961 115.209 92.8389 117.957 95.1 120.858C97.4956 123.931 100.024 127.174 100.636 127.201C101.83 127.277 102.175 127.341 102.469 127.245C102.774 127.146 103.022 126.876 104.102 126.27C99.8085 119.701 96.7051 115.563 91.5844 109.667C91.2223 109.305 90.7568 108.839 90.2396 108.891C89.7224 108.943 89.3603 109.46 89.1017 109.874ZM100.843 98.8565C104.929 93.6841 108.964 88.7186 113.205 83.7014C113.247 83.7437 113.584 84.3656 113.977 85.0929C114.546 86.1443 115.234 87.4161 115.326 87.4773C115.184 87.5621 114.393 88.6365 113.503 89.8466C112.764 90.8498 111.957 91.9463 111.395 92.6496C109.001 95.7469 106.012 98.972 103.083 102.132C102.784 102.454 102.485 102.777 102.188 103.098C101.567 102.374 100.377 100.098 100.429 99.6323C100.478 99.3411 100.663 99.0954 100.814 98.8953C100.824 98.8822 100.833 98.8692 100.843 98.8565ZM63.6795 56.8827C62.8777 56.0163 61.3917 54.0233 60.59 53.144C60.59 53.144 67.4789 50.8216 70.299 47.45C73.3472 43.8058 75.5419 40.3616 74.168 35.916C73.2066 32.8051 71.4039 31.0133 68.766 29.565C73.1625 30.2374 77.2569 33.8915 77.8776 38.3397C78.0845 39.8914 77.9811 41.5466 77.6707 43.0983C76.3776 49.8741 72.0328 56.0292 66.0846 59.4947C65.2829 58.6154 64.4812 57.749 63.6795 56.8827Z" fill="black" fill-opacity="0.5"/>
<path d="M58.108 75.92L62.3088 73.5118L83.5155 99.4772L80.3086 103.046L58.108 75.92Z" fill="black" fill-opacity="0.5"/>
</svg>
